<?xml version="1.0" encoding="UTF-8" standalone="no"?>
<!DOCTYPE svg PUBLIC "-//W3C//DTD SVG 1.1//EN"
 "http://www.w3.org/Graphics/SVG/1.1/DTD/svg11.dtd">
<!-- Generated by graphviz version 2.40.1 (20161225.0304)
 -->
<!-- Title: unnamed Pages: 1 -->
<svg width="100%" height="100%" xmlns="http://www.w3.org/2000/svg" xmlns:xlink="http://www.w3.org/1999/xlink">
<script type="text/ecmascript"><![CDATA[
/**
 *  SVGPan library 1.2.2
 * ======================
 *
 * Given an unique existing element with id "viewport" (or when missing, the
 * first g-element), including the library into any SVG adds the following
 * capabilities:
 *
 *  - Mouse panning
 *  - Mouse zooming (using the wheel)
 *  - Object dragging
 *
 * You can configure the behaviour of the pan/zoom/drag with the variables
 * listed in the CONFIGURATION section of this file.
 *
 * Known issues:
 *
 *  - Zooming (while panning) on Safari has still some issues
 *
 * Releases:
 *
 * 1.2.2, Tue Aug 30 17:21:56 CEST 2011, Andrea Leofreddi
 *	- Fixed viewBox on root tag (#7)
 *	- Improved zoom speed (#2)
 *
 * 1.2.1, Mon Jul  4 00:33:18 CEST 2011, Andrea Leofreddi
 *	- Fixed a regression with mouse wheel (now working on Firefox 5)
 *	- Working with viewBox attribute (#4)
 *	- Added "use strict;" and fixed resulting warnings (#5)
 *	- Added configuration variables, dragging is disabled by default (#3)
 *
 * 1.2, Sat Mar 20 08:42:50 GMT 2010, Zeng Xiaohui
 *	Fixed a bug with browser mouse handler interaction
 *
 * 1.1, Wed Feb  3 17:39:33 GMT 2010, Zeng Xiaohui
 *	Updated the zoom code to support the mouse wheel on Safari/Chrome
 *
 * 1.0, Andrea Leofreddi
 *	First release
 *
 * This code is licensed under the following BSD license:
 *
 * Copyright 2009-2017 Andrea Leofreddi <a.leofreddi@vleo.net>. All rights reserved.
 *
 * Redistribution and use in source and binary forms, with or without modification, are
 * permitted provided that the following conditions are met:
 *
 *    1. Redistributions of source code must retain the above copyright
 *       notice, this list of conditions and the following disclaimer.
 *    2. Redistributions in binary form must reproduce the above copyright
 *       notice, this list of conditions and the following disclaimer in the
 *       documentation and/or other materials provided with the distribution.
 *    3. Neither the name of the copyright holder nor the names of its
 *       contributors may be used to endorse or promote products derived from
 *       this software without specific prior written permission.
 *
 * THIS SOFTWARE IS PROVIDED BY COPYRIGHT HOLDERS AND CONTRIBUTORS ''AS IS'' AND ANY EXPRESS
 * OR IMPLIED WARRANTIES, INCLUDING, BUT NOT LIMITED TO, THE IMPLIED WARRANTIES OF MERCHANTABILITY
 * AND FITNESS FOR A PARTICULAR PURPOSE ARE DISCLAIMED. IN NO EVENT SHALL COPYRIGHT HOLDERS OR
 * CONTRIBUTORS BE LIABLE FOR ANY DIRECT, INDIRECT, INCIDENTAL, SPECIAL, EXEMPLARY, OR
 * CONSEQUENTIAL DAMAGES (INCLUDING, BUT NOT LIMITED TO, PROCUREMENT OF SUBSTITUTE GOODS OR
 * SERVICES; LOSS OF USE, DATA, OR PROFITS; OR BUSINESS INTERRUPTION) HOWEVER CAUSED AND ON
 * ANY THEORY OF LIABILITY, WHETHER IN CONTRACT, STRICT LIABILITY, OR TORT (INCLUDING
 * NEGLIGENCE OR OTHERWISE) ARISING IN ANY WAY OUT OF THE USE OF THIS SOFTWARE, EVEN IF
 * ADVISED OF THE POSSIBILITY OF SUCH DAMAGE.
 *
 * The views and conclusions contained in the software and documentation are those of the
 * authors and should not be interpreted as representing official policies, either expressed
 * or implied, of Andrea Leofreddi.
 */

"use strict";

/// CONFIGURATION
/// ====>

var enablePan = 1; // 1 or 0: enable or disable panning (default enabled)
var enableZoom = 1; // 1 or 0: enable or disable zooming (default enabled)
var enableDrag = 0; // 1 or 0: enable or disable dragging (default disabled)
var zoomScale = 0.2; // Zoom sensitivity

/// <====
/// END OF CONFIGURATION

var root = document.documentElement;

var state = 'none', svgRoot = null, stateTarget, stateOrigin, stateTf;

setupHandlers(root);

/**
 * Register handlers
 */
function setupHandlers(root){
	setAttributes(root, {
		"onmouseup" : "handleMouseUp(evt)",
		"onmousedown" : "handleMouseDown(evt)",
		"onmousemove" : "handleMouseMove(evt)",
		//"onmouseout" : "handleMouseUp(evt)", // Decomment this to stop the pan functionality when dragging out of the SVG element
	});

	if(navigator.userAgent.toLowerCase().indexOf('webkit') >= 0)
		window.addEventListener('mousewheel', handleMouseWheel, false); // Chrome/Safari
	else
		window.addEventListener('DOMMouseScroll', handleMouseWheel, false); // Others
}

/**
 * Retrieves the root element for SVG manipulation. The element is then cached into the svgRoot global variable.
 */
function getRoot(root) {
	if(svgRoot == null) {
		var r = root.getElementById("viewport") ? root.getElementById("viewport") : root.documentElement, t = r;

		while(t != root) {
			if(t.getAttribute("viewBox")) {
				setCTM(r, t.getCTM());

				t.removeAttribute("viewBox");
			}

			t = t.parentNode;
		}

		svgRoot = r;
	}

	return svgRoot;
}

/**
 * Instance an SVGPoint object with given event coordinates.
 */
function getEventPoint(evt) {
	var p = root.createSVGPoint();

	p.x = evt.clientX;
	p.y = evt.clientY;

	return p;
}

/**
 * Sets the current transform matrix of an element.
 */
function setCTM(element, matrix) {
	var s = "matrix(" + matrix.a + "," + matrix.b + "," + matrix.c + "," + matrix.d + "," + matrix.e + "," + matrix.f + ")";

	element.setAttribute("transform", s);
}

/**
 * Dumps a matrix to a string (useful for debug).
 */
function dumpMatrix(matrix) {
	var s = "[ " + matrix.a + ", " + matrix.c + ", " + matrix.e + "\n  " + matrix.b + ", " + matrix.d + ", " + matrix.f + "\n  0, 0, 1 ]";

	return s;
}

/**
 * Sets attributes of an element.
 */
function setAttributes(element, attributes){
	for (var i in attributes)
		element.setAttributeNS(null, i, attributes[i]);
}

/**
 * Handle mouse wheel event.
 */
function handleMouseWheel(evt) {
	if(!enableZoom)
		return;

	if(evt.preventDefault)
		evt.preventDefault();

	evt.returnValue = false;

	var svgDoc = evt.target.ownerDocument;

	var delta;

	if(evt.wheelDelta)
		delta = evt.wheelDelta / 360; // Chrome/Safari
	else
		delta = evt.detail / -9; // Mozilla

	var z = Math.pow(1 + zoomScale, delta);

	var g = getRoot(svgDoc);
	
	var p = getEventPoint(evt);

	p = p.matrixTransform(g.getCTM().inverse());

	// Compute new scale matrix in current mouse position
	var k = root.createSVGMatrix().translate(p.x, p.y).scale(z).translate(-p.x, -p.y);

        setCTM(g, g.getCTM().multiply(k));

	if(typeof(stateTf) == "undefined")
		stateTf = g.getCTM().inverse();

	stateTf = stateTf.multiply(k.inverse());
}

/**
 * Handle mouse move event.
 */
function handleMouseMove(evt) {
	if(evt.preventDefault)
		evt.preventDefault();

	evt.returnValue = false;

	var svgDoc = evt.target.ownerDocument;

	var g = getRoot(svgDoc);

	if(state == 'pan' && enablePan) {
		// Pan mode
		var p = getEventPoint(evt).matrixTransform(stateTf);

		setCTM(g, stateTf.inverse().translate(p.x - stateOrigin.x, p.y - stateOrigin.y));
	} else if(state == 'drag' && enableDrag) {
		// Drag mode
		var p = getEventPoint(evt).matrixTransform(g.getCTM().inverse());

		setCTM(stateTarget, root.createSVGMatrix().translate(p.x - stateOrigin.x, p.y - stateOrigin.y).multiply(g.getCTM().inverse()).multiply(stateTarget.getCTM()));

		stateOrigin = p;
	}
}

/**
 * Handle click event.
 */
function handleMouseDown(evt) {
	if(evt.preventDefault)
		evt.preventDefault();

	evt.returnValue = false;

	var svgDoc = evt.target.ownerDocument;

	var g = getRoot(svgDoc);

	if(
		evt.target.tagName == "svg"
		|| !enableDrag // Pan anyway when drag is disabled and the user clicked on an element
	) {
		// Pan mode
		state = 'pan';

		stateTf = g.getCTM().inverse();

		stateOrigin = getEventPoint(evt).matrixTransform(stateTf);
	} else {
		// Drag mode
		state = 'drag';

		stateTarget = evt.target;

		stateTf = g.getCTM().inverse();

		stateOrigin = getEventPoint(evt).matrixTransform(stateTf);
	}
}

/**
 * Handle mouse button release event.
 */
function handleMouseUp(evt) {
	if(evt.preventDefault)
		evt.preventDefault();

	evt.returnValue = false;

	var svgDoc = evt.target.ownerDocument;

	if(state == 'pan' || state == 'drag') {
		// Quit pan mode
		state = '';
	}
}
]]></script><g id="viewport" transform="scale(0.5,0.5) translate(0,0)"><g id="graph0" class="graph" transform="scale(1 1) rotate(0) translate(4 1001)">
<title>unnamed</title>
<polygon fill="#ffffff" stroke="transparent" points="-4,4 -4,-1001 1167.7861,-1001 1167.7861,4 -4,4"/>
<g id="clust1" class="cluster">
<title>cluster_L</title>
<polygon fill="none" stroke="#000000" points="8,-901 8,-989 504,-989 504,-901 8,-901"/>
</g>
<!-- Type: alloc_space -->
<g id="node1" class="node">
<title>Type: alloc_space</title>
<polygon fill="#f8f8f8" stroke="#000000" points="495.9688,-981 16.0312,-981 16.0312,-909 495.9688,-909 495.9688,-981"/>
<text text-anchor="start" x="24.0156" y="-964.2" font-family="Times,serif" font-size="16.00" fill="#000000">Type: alloc_space</text>
<text text-anchor="start" x="24.0156" y="-948.2" font-family="Times,serif" font-size="16.00" fill="#000000">Time: Sep 19, 2019 at 1:12pm (CST)</text>
<text text-anchor="start" x="24.0156" y="-932.2" font-family="Times,serif" font-size="16.00" fill="#000000">Showing nodes accounting for 1392.19MB, 99.46% of 1399.80MB total</text>
<text text-anchor="start" x="24.0156" y="-916.2" font-family="Times,serif" font-size="16.00" fill="#000000">Dropped 18 nodes (cum &lt;= 7MB)</text>
</g>
<!-- N1 -->
<g id="node1" class="node">
<title>N1</title>
<g id="a_node1"><a xlink:title="github.com/pingcap/tidb/util/mvmap.(*MVMap).Put (793.92MB)">
<polygon fill="#edd9d5" stroke="#b21b00" points="671.6519,-443 458.3481,-443 458.3481,-330 671.6519,-330 671.6519,-443"/>
<text text-anchor="middle" x="565" y="-422.2" font-family="Times,serif" font-size="21.00" fill="#000000">mvmap</text>
<text text-anchor="middle" x="565" y="-401.2" font-family="Times,serif" font-size="21.00" fill="#000000">(*MVMap)</text>
<text text-anchor="middle" x="565" y="-380.2" font-family="Times,serif" font-size="21.00" fill="#000000">Put</text>
<text text-anchor="middle" x="565" y="-359.2" font-family="Times,serif" font-size="21.00" fill="#000000">264.83MB (18.92%)</text>
<text text-anchor="middle" x="565" y="-338.2" font-family="Times,serif" font-size="21.00" fill="#000000">of 793.92MB (56.72%)</text>
</a>
</g>
</g>
<!-- NN1_0 -->
<g id="NN1_0" class="node">
<title>NN1_0</title>
<g id="a_NN1_0"><a xlink:title="124.20MB">
<polygon fill="#f8f8f8" stroke="#000000" points="437,-278 387,-278 383,-274 383,-242 433,-242 437,-246 437,-278"/>
<polyline fill="none" stroke="#000000" points="433,-274 383,-274 "/>
<polyline fill="none" stroke="#000000" points="433,-274 433,-242 "/>
<polyline fill="none" stroke="#000000" points="433,-274 437,-278 "/>
<text text-anchor="middle" x="410" y="-257.6" font-family="Times,serif" font-size="8.00" fill="#000000">312kB</text>
</a>
</g>
</g>
<!-- N1&#45;&gt;NN1_0 -->
<g id="edge1" class="edge">
<title>N1&#45;&gt;NN1_0</title>
<g id="a_edge1"><a xlink:title="124.20MB">
<path fill="none" stroke="#000000" d="M458.2482,-329.9189C451.1087,-324.313 444.3348,-318.3335 438.2139,-312 431.4721,-305.0241 425.8644,-296.1171 421.4717,-287.6536"/>
<polygon fill="#000000" stroke="#000000" points="424.5178,-285.9114 417.0328,-278.413 418.2081,-288.9425 424.5178,-285.9114"/>
</a>
</g>
<g id="a_edge1&#45;label"><a xlink:title="124.20MB">
<text text-anchor="middle" x="470.8931" y="-300.8" font-family="Times,serif" font-size="14.00" fill="#000000"> 124.20MB</text>
</a>
</g>
</g>
<!-- NN1_1 -->
<g id="NN1_1" class="node">
<title>NN1_1</title>
<g id="a_NN1_1"><a xlink:title="68.12MB">
<polygon fill="#f8f8f8" stroke="#000000" points="528.1727,-278 469.8273,-278 465.8273,-274 465.8273,-242 524.1727,-242 528.1727,-246 528.1727,-278"/>
<polyline fill="none" stroke="#000000" points="524.1727,-274 465.8273,-274 "/>
<polyline fill="none" stroke="#000000" points="524.1727,-274 524.1727,-242 "/>
<polyline fill="none" stroke="#000000" points="524.1727,-274 528.1727,-278 "/>
<text text-anchor="middle" x="497" y="-257.6" font-family="Times,serif" font-size="8.00" fill="#000000">120kB..192kB</text>
</a>
</g>
</g>
<!-- N1&#45;&gt;NN1_1 -->
<g id="edge2" class="edge">
<title>N1&#45;&gt;NN1_1</title>
<g id="a_edge2"><a xlink:title="68.12MB">
<path fill="none" stroke="#000000" d="M520.8817,-329.6064C517.3331,-323.822 514.0356,-317.9006 511.2139,-312 507.6765,-304.603 504.8956,-296.1787 502.7676,-288.2967"/>
<polygon fill="#000000" stroke="#000000" points="506.117,-287.259 500.3377,-278.3792 499.3181,-288.9249 506.117,-287.259"/>
</a>
</g>
<g id="a_edge2&#45;label"><a xlink:title="68.12MB">
<text text-anchor="middle" x="540.3931" y="-300.8" font-family="Times,serif" font-size="14.00" fill="#000000"> 68.12MB</text>
</a>
</g>
</g>
<!-- NN1_2 -->
<g id="NN1_2" class="node">
<title>NN1_2</title>
<g id="a_NN1_2"><a xlink:title="32.40MB">
<polygon fill="#f8f8f8" stroke="#000000" points="604.1729,-278 553.8271,-278 549.8271,-274 549.8271,-242 600.1729,-242 604.1729,-246 604.1729,-278"/>
<polyline fill="none" stroke="#000000" points="600.1729,-274 549.8271,-274 "/>
<polyline fill="none" stroke="#000000" points="600.1729,-274 600.1729,-242 "/>
<polyline fill="none" stroke="#000000" points="600.1729,-274 604.1729,-278 "/>
<text text-anchor="middle" x="577" y="-257.6" font-family="Times,serif" font-size="8.00" fill="#000000">64kB..96kB</text>
</a>
</g>
</g>
<!-- N1&#45;&gt;NN1_2 -->
<g id="edge3" class="edge">
<title>N1&#45;&gt;NN1_2</title>
<g id="a_edge3"><a xlink:title="32.40MB">
<path fill="none" stroke="#000000" d="M570.3682,-329.9099C571.739,-315.4601 573.1542,-300.5414 574.3234,-288.2158"/>
<polygon fill="#000000" stroke="#000000" points="577.8202,-288.4144 575.2803,-278.1286 570.8515,-287.7533 577.8202,-288.4144"/>
</a>
</g>
<g id="a_edge3&#45;label"><a xlink:title="32.40MB">
<text text-anchor="middle" x="601.3931" y="-300.8" font-family="Times,serif" font-size="14.00" fill="#000000"> 32.40MB</text>
</a>
</g>
</g>
<!-- NN1_3 -->
<g id="NN1_3" class="node">
<title>NN1_3</title>
<g id="a_NN1_3"><a xlink:title="27.49MB">
<polygon fill="#f8f8f8" stroke="#000000" points="684.1729,-278 633.8271,-278 629.8271,-274 629.8271,-242 680.1729,-242 684.1729,-246 684.1729,-278"/>
<polyline fill="none" stroke="#000000" points="680.1729,-274 629.8271,-274 "/>
<polyline fill="none" stroke="#000000" points="680.1729,-274 680.1729,-242 "/>
<polyline fill="none" stroke="#000000" points="680.1729,-274 684.1729,-278 "/>
<text text-anchor="middle" x="657" y="-257.6" font-family="Times,serif" font-size="8.00" fill="#000000">144B..56kB</text>
</a>
</g>
</g>
<!-- N1&#45;&gt;NN1_3 -->
<g id="edge4" class="edge">
<title>N1&#45;&gt;NN1_3</title>
<g id="a_edge4"><a xlink:title="27.49MB">
<path fill="none" stroke="#000000" d="M620.853,-329.8992C625.5588,-324.0545 630.0282,-318.0389 634,-312 638.9362,-304.4947 643.2692,-295.7546 646.8043,-287.6059"/>
<polygon fill="#000000" stroke="#000000" points="650.1537,-288.6627 650.7074,-278.0824 643.6765,-286.0081 650.1537,-288.6627"/>
</a>
</g>
<g id="a_edge4&#45;label"><a xlink:title="27.49MB">
<text text-anchor="middle" x="669.3931" y="-300.8" font-family="Times,serif" font-size="14.00" fill="#000000"> 27.49MB</text>
</a>
</g>
</g>
<!-- N5 -->
<g id="node5" class="node">
<title>N5</title>
<g id="a_node5"><a xlink:title="github.com/pingcap/tidb/util/mvmap.(*entryStore).put (381.09MB)">
<polygon fill="#edddd5" stroke="#b23900" points="836.8245,-190 621.1755,-190 621.1755,-86 836.8245,-86 836.8245,-190"/>
<text text-anchor="middle" x="729" y="-166.8" font-family="Times,serif" font-size="24.00" fill="#000000">mvmap</text>
<text text-anchor="middle" x="729" y="-142.8" font-family="Times,serif" font-size="24.00" fill="#000000">(*entryStore)</text>
<text text-anchor="middle" x="729" y="-118.8" font-family="Times,serif" font-size="24.00" fill="#000000">put</text>
<text text-anchor="middle" x="729" y="-94.8" font-family="Times,serif" font-size="24.00" fill="#000000">381.09MB (27.22%)</text>
</a>
</g>
</g>
<!-- N1&#45;&gt;N5 -->
<g id="edge26" class="edge">
<title>N1&#45;&gt;N5</title>
<g id="a_edge26"><a xlink:title="github.com/pingcap/tidb/util/mvmap.(*MVMap).Put &#45;&gt; github.com/pingcap/tidb/util/mvmap.(*entryStore).put (381.09MB)">
<path fill="none" stroke="#b23900" stroke-width="2" d="M671.9011,-341.9043C683.4324,-333.4218 693.8964,-323.5124 702,-312 724.6614,-279.8059 731.3553,-235.9672 732.4122,-200.348"/>
<polygon fill="#b23900" stroke="#b23900" stroke-width="2" points="735.9161,-200.1118 732.5703,-190.0592 728.9169,-200.0042 735.9161,-200.1118"/>
</a>
</g>
<g id="a_edge26&#45;label"><a xlink:title="github.com/pingcap/tidb/util/mvmap.(*MVMap).Put &#45;&gt; github.com/pingcap/tidb/util/mvmap.(*entryStore).put (381.09MB)">
<text text-anchor="middle" x="759.8931" y="-255.8" font-family="Times,serif" font-size="14.00" fill="#000000"> 381.09MB</text>
</a>
</g>
</g>
<!-- N7 -->
<g id="node7" class="node">
<title>N7</title>
<g id="a_node7"><a xlink:title="github.com/pingcap/tidb/util/mvmap.(*dataStore).put (148MB)">
<polygon fill="#ede6e0" stroke="#b28254" points="1040.4932,-178 897.5068,-178 897.5068,-98 1040.4932,-98 1040.4932,-178"/>
<text text-anchor="middle" x="969" y="-159.6" font-family="Times,serif" font-size="18.00" fill="#000000">mvmap</text>
<text text-anchor="middle" x="969" y="-141.6" font-family="Times,serif" font-size="18.00" fill="#000000">(*dataStore)</text>
<text text-anchor="middle" x="969" y="-123.6" font-family="Times,serif" font-size="18.00" fill="#000000">put</text>
<text text-anchor="middle" x="969" y="-105.6" font-family="Times,serif" font-size="18.00" fill="#000000">148MB (10.57%)</text>
</a>
</g>
</g>
<!-- N1&#45;&gt;N7 -->
<g id="edge29" class="edge">
<title>N1&#45;&gt;N7</title>
<g id="a_edge29"><a xlink:title="github.com/pingcap/tidb/util/mvmap.(*MVMap).Put &#45;&gt; github.com/pingcap/tidb/util/mvmap.(*dataStore).put (148MB)">
<path fill="none" stroke="#b28254" d="M671.7303,-344.1085C711.8757,-326.4243 757.1726,-304.3238 796,-280 840.2031,-252.3085 885.6172,-214.6135 918.8181,-185.0201"/>
<polygon fill="#b28254" stroke="#b28254" points="921.4582,-187.3535 926.5608,-178.0683 916.7816,-182.1449 921.4582,-187.3535"/>
</a>
</g>
<g id="a_edge29&#45;label"><a xlink:title="github.com/pingcap/tidb/util/mvmap.(*MVMap).Put &#45;&gt; github.com/pingcap/tidb/util/mvmap.(*dataStore).put (148MB)">
<text text-anchor="middle" x="874.1431" y="-255.8" font-family="Times,serif" font-size="14.00" fill="#000000"> 148MB</text>
</a>
</g>
</g>
<!-- N2 -->
<g id="node2" class="node">
<title>N2</title>
<g id="a_node2"><a xlink:title="testing.(*B).launch (1393.78MB)">
<polygon fill="#edd5d5" stroke="#b20000" points="615.6055,-965 514.3945,-965 514.3945,-925 615.6055,-925 615.6055,-965"/>
<text text-anchor="middle" x="565" y="-954.6" font-family="Times,serif" font-size="8.00" fill="#000000">testing</text>
<text text-anchor="middle" x="565" y="-946.6" font-family="Times,serif" font-size="8.00" fill="#000000">(*B)</text>
<text text-anchor="middle" x="565" y="-938.6" font-family="Times,serif" font-size="8.00" fill="#000000">launch</text>
<text text-anchor="middle" x="565" y="-930.6" font-family="Times,serif" font-size="8.00" fill="#000000">0 of 1393.78MB (99.57%)</text>
</a>
</g>
</g>
<!-- N11 -->
<g id="node11" class="node">
<title>N11</title>
<g id="a_node11"><a xlink:title="testing.(*B).runN (1397.20MB)">
<polygon fill="#edd5d5" stroke="#b20000" points="615.6055,-859 514.3945,-859 514.3945,-819 615.6055,-819 615.6055,-859"/>
<text text-anchor="middle" x="565" y="-848.6" font-family="Times,serif" font-size="8.00" fill="#000000">testing</text>
<text text-anchor="middle" x="565" y="-840.6" font-family="Times,serif" font-size="8.00" fill="#000000">(*B)</text>
<text text-anchor="middle" x="565" y="-832.6" font-family="Times,serif" font-size="8.00" fill="#000000">runN</text>
<text text-anchor="middle" x="565" y="-824.6" font-family="Times,serif" font-size="8.00" fill="#000000">0 of 1397.20MB (99.81%)</text>
</a>
</g>
</g>
<!-- N2&#45;&gt;N11 -->
<g id="edge22" class="edge">
<title>N2&#45;&gt;N11</title>
<g id="a_edge22"><a xlink:title="testing.(*B).launch &#45;&gt; testing.(*B).runN (1393.78MB)">
<path fill="none" stroke="#b20000" stroke-width="5" d="M565,-924.5621C565,-908.9184 565,-887.0953 565,-869.4045"/>
<polygon fill="#b20000" stroke="#b20000" stroke-width="5" points="569.3751,-869.0156 565,-859.0156 560.6251,-869.0157 569.3751,-869.0156"/>
</a>
</g>
<g id="a_edge22&#45;label"><a xlink:title="testing.(*B).launch &#45;&gt; testing.(*B).runN (1393.78MB)">
<text text-anchor="middle" x="600.3931" y="-879.8" font-family="Times,serif" font-size="14.00" fill="#000000"> 1393.78MB</text>
</a>
</g>
</g>
<!-- N3 -->
<g id="node3" class="node">
<title>N3</title>
<g id="a_node3"><a xlink:title="join.JoinExample (1397.20MB)">
<polygon fill="#edd5d5" stroke="#b20000" points="615.6055,-683 514.3945,-683 514.3945,-647 615.6055,-647 615.6055,-683"/>
<text text-anchor="middle" x="565" y="-670.6" font-family="Times,serif" font-size="8.00" fill="#000000">join</text>
<text text-anchor="middle" x="565" y="-662.6" font-family="Times,serif" font-size="8.00" fill="#000000">JoinExample</text>
<text text-anchor="middle" x="565" y="-654.6" font-family="Times,serif" font-size="8.00" fill="#000000">0 of 1397.20MB (99.81%)</text>
</a>
</g>
</g>
<!-- N4 -->
<g id="node4" class="node">
<title>N4</title>
<g id="a_node4"><a xlink:title="join.readCSVFileIntoTbl (601.28MB)">
<polygon fill="#eddad5" stroke="#b22700" points="345.8166,-597 104.1834,-597 104.1834,-493 345.8166,-493 345.8166,-597"/>
<text text-anchor="middle" x="225" y="-573.8" font-family="Times,serif" font-size="24.00" fill="#000000">join</text>
<text text-anchor="middle" x="225" y="-549.8" font-family="Times,serif" font-size="24.00" fill="#000000">readCSVFileIntoTbl</text>
<text text-anchor="middle" x="225" y="-525.8" font-family="Times,serif" font-size="24.00" fill="#000000">415.77MB (29.70%)</text>
<text text-anchor="middle" x="225" y="-501.8" font-family="Times,serif" font-size="24.00" fill="#000000">of 601.28MB (42.95%)</text>
</a>
</g>
</g>
<!-- N3&#45;&gt;N4 -->
<g id="edge25" class="edge">
<title>N3&#45;&gt;N4</title>
<g id="a_edge25"><a xlink:title="join.JoinExample &#45;&gt; join.readCSVFileIntoTbl (601.28MB)">
<path fill="none" stroke="#b22700" stroke-width="3" d="M514.0986,-647.0348C472.1573,-632.232 410.7796,-610.5693 355.3558,-591.0079"/>
<polygon fill="#b22700" stroke="#b22700" stroke-width="3" points="356.3963,-587.6636 345.8015,-587.6358 354.0665,-594.2646 356.3963,-587.6636"/>
</a>
</g>
<g id="a_edge25&#45;label"><a xlink:title="join.JoinExample &#45;&gt; join.readCSVFileIntoTbl (601.28MB)">
<text text-anchor="middle" x="487.8931" y="-617.8" font-family="Times,serif" font-size="14.00" fill="#000000"> 601.28MB</text>
</a>
</g>
</g>
<!-- N10 -->
<g id="node10" class="node">
<title>N10</title>
<g id="a_node10"><a xlink:title="join.buildHashTable (794.42MB)">
<polygon fill="#edd9d5" stroke="#b21b00" points="613.6055,-563 516.3945,-563 516.3945,-527 613.6055,-527 613.6055,-563"/>
<text text-anchor="middle" x="565" y="-550.6" font-family="Times,serif" font-size="8.00" fill="#000000">join</text>
<text text-anchor="middle" x="565" y="-542.6" font-family="Times,serif" font-size="8.00" fill="#000000">buildHashTable</text>
<text text-anchor="middle" x="565" y="-534.6" font-family="Times,serif" font-size="8.00" fill="#000000">0 of 794.42MB (56.75%)</text>
</a>
</g>
</g>
<!-- N3&#45;&gt;N10 -->
<g id="edge23" class="edge">
<title>N3&#45;&gt;N10</title>
<g id="a_edge23"><a xlink:title="join.JoinExample &#45;&gt; join.buildHashTable (794.42MB)">
<path fill="none" stroke="#b21b00" stroke-width="3" d="M565,-646.7746C565,-627.1904 565,-595.8184 565,-573.0776"/>
<polygon fill="#b21b00" stroke="#b21b00" stroke-width="3" points="568.5001,-573.0037 565,-563.0037 561.5001,-573.0038 568.5001,-573.0037"/>
</a>
</g>
<g id="a_edge23&#45;label"><a xlink:title="join.JoinExample &#45;&gt; join.buildHashTable (794.42MB)">
<text text-anchor="middle" x="596.8931" y="-617.8" font-family="Times,serif" font-size="14.00" fill="#000000"> 794.42MB</text>
</a>
</g>
</g>
<!-- NN4_0 -->
<g id="NN4_0" class="node">
<title>NN4_0</title>
<g id="a_NN4_0"><a xlink:title="183.09MB">
<polygon fill="#f8f8f8" stroke="#000000" points="85.1729,-404.5 34.8271,-404.5 30.8271,-400.5 30.8271,-368.5 81.1729,-368.5 85.1729,-372.5 85.1729,-404.5"/>
<polyline fill="none" stroke="#000000" points="81.1729,-400.5 30.8271,-400.5 "/>
<polyline fill="none" stroke="#000000" points="81.1729,-400.5 81.1729,-368.5 "/>
<polyline fill="none" stroke="#000000" points="81.1729,-400.5 85.1729,-404.5 "/>
<text text-anchor="middle" x="58" y="-384.1" font-family="Times,serif" font-size="8.00" fill="#000000">16B..120kB</text>
</a>
</g>
</g>
<!-- N4&#45;&gt;NN4_0 -->
<g id="edge5" class="edge">
<title>N4&#45;&gt;NN4_0</title>
<g id="a_edge5"><a xlink:title="183.09MB">
<path fill="none" stroke="#000000" d="M110.3523,-492.9439C103.4185,-487.4549 96.9432,-481.4814 91.2139,-475 76.1738,-457.9858 67.6888,-433.5079 63.0667,-414.6059"/>
<polygon fill="#000000" stroke="#000000" points="66.4651,-413.764 60.8792,-404.7613 59.6318,-415.2824 66.4651,-413.764"/>
</a>
</g>
<g id="a_edge5&#45;label"><a xlink:title="183.09MB">
<text text-anchor="middle" x="123.8931" y="-463.8" font-family="Times,serif" font-size="14.00" fill="#000000"> 183.09MB</text>
</a>
</g>
</g>
<!-- NN4_1 -->
<g id="NN4_1" class="node">
<title>NN4_1</title>
<g id="a_NN4_1"><a xlink:title="95.83MB">
<polygon fill="#f8f8f8" stroke="#000000" points="172,-404.5 122,-404.5 118,-400.5 118,-368.5 168,-368.5 172,-372.5 172,-404.5"/>
<polyline fill="none" stroke="#000000" points="168,-400.5 118,-400.5 "/>
<polyline fill="none" stroke="#000000" points="168,-400.5 168,-368.5 "/>
<polyline fill="none" stroke="#000000" points="168,-400.5 172,-404.5 "/>
<text text-anchor="middle" x="145" y="-384.1" font-family="Times,serif" font-size="8.00" fill="#000000">240kB</text>
</a>
</g>
</g>
<!-- N4&#45;&gt;NN4_1 -->
<g id="edge6" class="edge">
<title>N4&#45;&gt;NN4_1</title>
<g id="a_edge6"><a xlink:title="95.83MB">
<path fill="none" stroke="#000000" d="M174.933,-492.7047C170.9123,-486.989 167.2418,-481.044 164.2139,-475 154.7802,-456.1694 149.9583,-432.8135 147.5048,-414.8242"/>
<polygon fill="#000000" stroke="#000000" points="150.9528,-414.1804 146.29,-404.6668 144.0023,-415.0117 150.9528,-414.1804"/>
</a>
</g>
<g id="a_edge6&#45;label"><a xlink:title="95.83MB">
<text text-anchor="middle" x="193.3931" y="-463.8" font-family="Times,serif" font-size="14.00" fill="#000000"> 95.83MB</text>
</a>
</g>
</g>
<!-- NN4_2 -->
<g id="NN4_2" class="node">
<title>NN4_2</title>
<g id="a_NN4_2"><a xlink:title="75.55MB">
<polygon fill="#f8f8f8" stroke="#000000" points="252,-404.5 202,-404.5 198,-400.5 198,-368.5 248,-368.5 252,-372.5 252,-404.5"/>
<polyline fill="none" stroke="#000000" points="248,-400.5 198,-400.5 "/>
<polyline fill="none" stroke="#000000" points="248,-400.5 248,-368.5 "/>
<polyline fill="none" stroke="#000000" points="248,-400.5 252,-404.5 "/>
<text text-anchor="middle" x="225" y="-384.1" font-family="Times,serif" font-size="8.00" fill="#000000">192kB</text>
</a>
</g>
</g>
<!-- N4&#45;&gt;NN4_2 -->
<g id="edge7" class="edge">
<title>N4&#45;&gt;NN4_2</title>
<g id="a_edge7"><a xlink:title="75.55MB">
<path fill="none" stroke="#000000" d="M225,-492.6619C225,-466.7434 225,-436.467 225,-414.8946"/>
<polygon fill="#000000" stroke="#000000" points="228.5001,-414.769 225,-404.769 221.5001,-414.769 228.5001,-414.769"/>
</a>
</g>
<g id="a_edge7&#45;label"><a xlink:title="75.55MB">
<text text-anchor="middle" x="253.3931" y="-463.8" font-family="Times,serif" font-size="14.00" fill="#000000"> 75.55MB</text>
</a>
</g>
</g>
<!-- NN4_3 -->
<g id="NN4_3" class="node">
<title>NN4_3</title>
<g id="a_NN4_3"><a xlink:title="57.79MB">
<polygon fill="#f8f8f8" stroke="#000000" points="332,-404.5 282,-404.5 278,-400.5 278,-368.5 328,-368.5 332,-372.5 332,-404.5"/>
<polyline fill="none" stroke="#000000" points="328,-400.5 278,-400.5 "/>
<polyline fill="none" stroke="#000000" points="328,-400.5 328,-368.5 "/>
<polyline fill="none" stroke="#000000" points="328,-400.5 332,-404.5 "/>
<text text-anchor="middle" x="305" y="-384.1" font-family="Times,serif" font-size="8.00" fill="#000000">152kB</text>
</a>
</g>
</g>
<!-- N4&#45;&gt;NN4_3 -->
<g id="edge8" class="edge">
<title>N4&#45;&gt;NN4_3</title>
<g id="a_edge8"><a xlink:title="57.79MB">
<path fill="none" stroke="#000000" d="M272.2853,-492.8415C276.2715,-487.0548 279.9399,-481.0574 283,-475 292.608,-455.9812 298.1941,-432.4994 301.3317,-414.5038"/>
<polygon fill="#000000" stroke="#000000" points="304.7898,-415.0439 302.908,-404.6175 297.8771,-413.9416 304.7898,-415.0439"/>
</a>
</g>
<g id="a_edge8&#45;label"><a xlink:title="57.79MB">
<text text-anchor="middle" x="317.3931" y="-463.8" font-family="Times,serif" font-size="14.00" fill="#000000"> 57.79MB</text>
</a>
</g>
</g>
<!-- N8 -->
<g id="node8" class="node">
<title>N8</title>
<g id="a_node8"><a xlink:title="encoding/csv.(*Reader).Read (182.50MB)">
<polygon fill="#ede4dd" stroke="#b2733e" points="364.6055,-280 267.3945,-280 267.3945,-240 364.6055,-240 364.6055,-280"/>
<text text-anchor="middle" x="316" y="-269.6" font-family="Times,serif" font-size="8.00" fill="#000000">csv</text>
<text text-anchor="middle" x="316" y="-261.6" font-family="Times,serif" font-size="8.00" fill="#000000">(*Reader)</text>
<text text-anchor="middle" x="316" y="-253.6" font-family="Times,serif" font-size="8.00" fill="#000000">Read</text>
<text text-anchor="middle" x="316" y="-245.6" font-family="Times,serif" font-size="8.00" fill="#000000">0 of 182.50MB (13.04%)</text>
</a>
</g>
</g>
<!-- N4&#45;&gt;N8 -->
<g id="edge28" class="edge">
<title>N4&#45;&gt;N8</title>
<g id="a_edge28"><a xlink:title="join.readCSVFileIntoTbl &#45;&gt; encoding/csv.(*Reader).Read (182.50MB)">
<path fill="none" stroke="#b2733e" d="M336.1706,-492.9786C341.4677,-487.5236 346.164,-481.5448 350,-475 384.5541,-416.0463 353.3307,-333.1075 332.013,-289.4804"/>
<polygon fill="#b2733e" stroke="#b2733e" points="335.0045,-287.6392 327.379,-280.2838 328.7533,-290.7891 335.0045,-287.6392"/>
</a>
</g>
<g id="a_edge28&#45;label"><a xlink:title="join.readCSVFileIntoTbl &#45;&gt; encoding/csv.(*Reader).Read (182.50MB)">
<text text-anchor="middle" x="397.8931" y="-382.3" font-family="Times,serif" font-size="14.00" fill="#000000"> 182.50MB</text>
</a>
</g>
</g>
<!-- NN5_0 -->
<g id="NN5_0" class="node">
<title>NN5_0</title>
<g id="a_NN5_0"><a xlink:title="146.90MB">
<polygon fill="#f8f8f8" stroke="#000000" points="589,-36 539,-36 535,-32 535,0 585,0 589,-4 589,-36"/>
<polyline fill="none" stroke="#000000" points="585,-32 535,-32 "/>
<polyline fill="none" stroke="#000000" points="585,-32 585,0 "/>
<polyline fill="none" stroke="#000000" points="585,-32 589,-36 "/>
<text text-anchor="middle" x="562" y="-15.6" font-family="Times,serif" font-size="8.00" fill="#000000">192kB</text>
</a>
</g>
</g>
<!-- N5&#45;&gt;NN5_0 -->
<g id="edge9" class="edge">
<title>N5&#45;&gt;NN5_0</title>
<g id="a_edge9"><a xlink:title="146.90MB">
<path fill="none" stroke="#000000" d="M621.1844,-89.5336C611.2224,-82.9975 601.6997,-75.8163 593.2139,-68 586.2139,-61.5524 580.1805,-53.1907 575.3351,-45.1565"/>
<polygon fill="#000000" stroke="#000000" points="578.3326,-43.3462 570.3812,-36.3444 572.2307,-46.7765 578.3326,-43.3462"/>
</a>
</g>
<g id="a_edge9&#45;label"><a xlink:title="146.90MB">
<text text-anchor="middle" x="624.8931" y="-56.8" font-family="Times,serif" font-size="14.00" fill="#000000"> 146.90MB</text>
</a>
</g>
</g>
<!-- NN5_1 -->
<g id="NN5_1" class="node">
<title>NN5_1</title>
<g id="a_NN5_1"><a xlink:title="93.02MB">
<polygon fill="#f8f8f8" stroke="#000000" points="676.1729,-36 625.8271,-36 621.8271,-32 621.8271,0 672.1729,0 676.1729,-4 676.1729,-36"/>
<polyline fill="none" stroke="#000000" points="672.1729,-32 621.8271,-32 "/>
<polyline fill="none" stroke="#000000" points="672.1729,-32 672.1729,0 "/>
<polyline fill="none" stroke="#000000" points="672.1729,-32 676.1729,-36 "/>
<text text-anchor="middle" x="649" y="-15.6" font-family="Times,serif" font-size="8.00" fill="#000000">24kB..72kB</text>
</a>
</g>
</g>
<!-- N5&#45;&gt;NN5_1 -->
<g id="edge10" class="edge">
<title>N5&#45;&gt;NN5_1</title>
<g id="a_edge10"><a xlink:title="93.02MB">
<path fill="none" stroke="#000000" d="M680.4869,-85.9825C676.0499,-80.1225 671.8608,-74.0707 668.2139,-68 664.0849,-61.127 660.5578,-53.2121 657.6954,-45.7368"/>
<polygon fill="#000000" stroke="#000000" points="660.9802,-44.5277 654.3207,-36.2874 654.3879,-46.882 660.9802,-44.5277"/>
</a>
</g>
<g id="a_edge10&#45;label"><a xlink:title="93.02MB">
<text text-anchor="middle" x="696.3931" y="-56.8" font-family="Times,serif" font-size="14.00" fill="#000000"> 93.02MB</text>
</a>
</g>
</g>
<!-- NN5_2 -->
<g id="NN5_2" class="node">
<title>NN5_2</title>
<g id="a_NN5_2"><a xlink:title="77.25MB">
<polygon fill="#f8f8f8" stroke="#000000" points="758.1728,-36 703.8272,-36 699.8272,-32 699.8272,0 754.1728,0 758.1728,-4 758.1728,-36"/>
<polyline fill="none" stroke="#000000" points="754.1728,-32 699.8272,-32 "/>
<polyline fill="none" stroke="#000000" points="754.1728,-32 754.1728,0 "/>
<polyline fill="none" stroke="#000000" points="754.1728,-32 758.1728,-36 "/>
<text text-anchor="middle" x="729" y="-15.6" font-family="Times,serif" font-size="8.00" fill="#000000">96kB..120kB</text>
</a>
</g>
</g>
<!-- N5&#45;&gt;NN5_2 -->
<g id="edge11" class="edge">
<title>N5&#45;&gt;NN5_2</title>
<g id="a_edge11"><a xlink:title="77.25MB">
<path fill="none" stroke="#000000" d="M729,-85.7153C729,-72.1756 729,-58.1028 729,-46.3171"/>
<polygon fill="#000000" stroke="#000000" points="732.5001,-46.2172 729,-36.2173 725.5001,-46.2173 732.5001,-46.2172"/>
</a>
</g>
<g id="a_edge11&#45;label"><a xlink:title="77.25MB">
<text text-anchor="middle" x="757.3931" y="-56.8" font-family="Times,serif" font-size="14.00" fill="#000000"> 77.25MB</text>
</a>
</g>
</g>
<!-- NN5_3 -->
<g id="NN5_3" class="node">
<title>NN5_3</title>
<g id="a_NN5_3"><a xlink:title="58.37MB">
<polygon fill="#f8f8f8" stroke="#000000" points="836,-36 786,-36 782,-32 782,0 832,0 836,-4 836,-36"/>
<polyline fill="none" stroke="#000000" points="832,-32 782,-32 "/>
<polyline fill="none" stroke="#000000" points="832,-32 832,0 "/>
<polyline fill="none" stroke="#000000" points="832,-32 836,-36 "/>
<text text-anchor="middle" x="809" y="-15.6" font-family="Times,serif" font-size="8.00" fill="#000000">152kB</text>
</a>
</g>
</g>
<!-- N5&#45;&gt;NN5_3 -->
<g id="edge12" class="edge">
<title>N5&#45;&gt;NN5_3</title>
<g id="a_edge12"><a xlink:title="58.37MB">
<path fill="none" stroke="#000000" d="M774.9421,-85.6487C779.2435,-79.8537 783.3513,-73.9084 787,-68 791.2962,-61.0429 795.194,-53.1006 798.4745,-45.6258"/>
<polygon fill="#000000" stroke="#000000" points="801.7905,-46.7674 802.4129,-36.1909 795.3308,-44.0709 801.7905,-46.7674"/>
</a>
</g>
<g id="a_edge12&#45;label"><a xlink:title="58.37MB">
<text text-anchor="middle" x="822.3931" y="-56.8" font-family="Times,serif" font-size="14.00" fill="#000000"> 58.37MB</text>
</a>
</g>
</g>
<!-- N6 -->
<g id="node6" class="node">
<title>N6</title>
<g id="a_node6"><a xlink:title="encoding/csv.(*Reader).readRecord (182.50MB)">
<polygon fill="#ede4dd" stroke="#b2733e" points="402.7985,-180 229.2015,-180 229.2015,-96 402.7985,-96 402.7985,-180"/>
<text text-anchor="middle" x="316" y="-160.8" font-family="Times,serif" font-size="19.00" fill="#000000">csv</text>
<text text-anchor="middle" x="316" y="-141.8" font-family="Times,serif" font-size="19.00" fill="#000000">(*Reader)</text>
<text text-anchor="middle" x="316" y="-122.8" font-family="Times,serif" font-size="19.00" fill="#000000">readRecord</text>
<text text-anchor="middle" x="316" y="-103.8" font-family="Times,serif" font-size="19.00" fill="#000000">182.50MB (13.04%)</text>
</a>
</g>
</g>
<!-- NN6_0 -->
<g id="NN6_0" class="node">
<title>NN6_0</title>
<g id="a_NN6_0"><a xlink:title="120MB">
<polygon fill="#f8f8f8" stroke="#000000" points="271,-36 221,-36 217,-32 217,0 267,0 271,-4 271,-36"/>
<polyline fill="none" stroke="#000000" points="267,-32 217,-32 "/>
<polyline fill="none" stroke="#000000" points="267,-32 267,0 "/>
<polyline fill="none" stroke="#000000" points="267,-32 271,-36 "/>
<text text-anchor="middle" x="244" y="-15.6" font-family="Times,serif" font-size="8.00" fill="#000000">32B</text>
</a>
</g>
</g>
<!-- N6&#45;&gt;NN6_0 -->
<g id="edge13" class="edge">
<title>N6&#45;&gt;NN6_0</title>
<g id="a_edge13"><a xlink:title="120MB">
<path fill="none" stroke="#000000" d="M283.3896,-95.6414C277.1625,-86.7378 270.9589,-77.2391 265.7139,-68 261.6856,-60.9041 257.9077,-52.9165 254.6685,-45.4426"/>
<polygon fill="#000000" stroke="#000000" points="257.8235,-43.9147 250.7448,-36.0317 251.3626,-46.6085 257.8235,-43.9147"/>
</a>
</g>
<g id="a_edge13&#45;label"><a xlink:title="120MB">
<text text-anchor="middle" x="289.1431" y="-56.8" font-family="Times,serif" font-size="14.00" fill="#000000"> 120MB</text>
</a>
</g>
</g>
<!-- NN6_1 -->
<g id="NN6_1" class="node">
<title>NN6_1</title>
<g id="a_NN6_1"><a xlink:title="54.50MB">
<polygon fill="#f8f8f8" stroke="#000000" points="343,-36 293,-36 289,-32 289,0 339,0 343,-4 343,-36"/>
<polyline fill="none" stroke="#000000" points="339,-32 289,-32 "/>
<polyline fill="none" stroke="#000000" points="339,-32 339,0 "/>
<polyline fill="none" stroke="#000000" points="339,-32 343,-36 "/>
<text text-anchor="middle" x="316" y="-15.6" font-family="Times,serif" font-size="8.00" fill="#000000">16B</text>
</a>
</g>
</g>
<!-- N6&#45;&gt;NN6_1 -->
<g id="edge14" class="edge">
<title>N6&#45;&gt;NN6_1</title>
<g id="a_edge14"><a xlink:title="54.50MB">
<path fill="none" stroke="#000000" d="M316,-95.6925C316,-79.2943 316,-60.9598 316,-46.2213"/>
<polygon fill="#000000" stroke="#000000" points="319.5001,-46.204 316,-36.204 312.5001,-46.2041 319.5001,-46.204"/>
</a>
</g>
<g id="a_edge14&#45;label"><a xlink:title="54.50MB">
<text text-anchor="middle" x="344.3931" y="-56.8" font-family="Times,serif" font-size="14.00" fill="#000000"> 54.50MB</text>
</a>
</g>
</g>
<!-- NN6_2 -->
<g id="NN6_2" class="node">
<title>NN6_2</title>
<g id="a_NN6_2"><a xlink:title="8MB">
<polygon fill="#f8f8f8" stroke="#000000" points="423,-36 373,-36 369,-32 369,0 419,0 423,-4 423,-36"/>
<polyline fill="none" stroke="#000000" points="419,-32 369,-32 "/>
<polyline fill="none" stroke="#000000" points="419,-32 419,0 "/>
<polyline fill="none" stroke="#000000" points="419,-32 423,-36 "/>
<text text-anchor="middle" x="396" y="-15.6" font-family="Times,serif" font-size="8.00" fill="#000000">48B</text>
</a>
</g>
</g>
<!-- N6&#45;&gt;NN6_2 -->
<g id="edge15" class="edge">
<title>N6&#45;&gt;NN6_2</title>
<g id="a_edge15"><a xlink:title="8MB">
<path fill="none" stroke="#000000" d="M354.1691,-95.7253C361.2285,-86.8929 368.1953,-77.3998 374,-68 378.2962,-61.0429 382.194,-53.1006 385.4745,-45.6258"/>
<polygon fill="#000000" stroke="#000000" points="388.7905,-46.7674 389.4129,-36.1909 382.3308,-44.0709 388.7905,-46.7674"/>
</a>
</g>
<g id="a_edge15&#45;label"><a xlink:title="8MB">
<text text-anchor="middle" x="398.1431" y="-56.8" font-family="Times,serif" font-size="14.00" fill="#000000"> 8MB</text>
</a>
</g>
</g>
<!-- NN7_0 -->
<g id="NN7_0" class="node">
<title>NN7_0</title>
<g id="a_NN7_0"><a xlink:title="43.35MB">
<polygon fill="#f8f8f8" stroke="#000000" points="916.1729,-36 865.8271,-36 861.8271,-32 861.8271,0 912.1729,0 916.1729,-4 916.1729,-36"/>
<polyline fill="none" stroke="#000000" points="912.1729,-32 861.8271,-32 "/>
<polyline fill="none" stroke="#000000" points="912.1729,-32 912.1729,0 "/>
<polyline fill="none" stroke="#000000" points="912.1729,-32 916.1729,-36 "/>
<text text-anchor="middle" x="889" y="-15.6" font-family="Times,serif" font-size="8.00" fill="#000000">24kB..40kB</text>
</a>
</g>
</g>
<!-- N7&#45;&gt;NN7_0 -->
<g id="edge16" class="edge">
<title>N7&#45;&gt;NN7_0</title>
<g id="a_edge16"><a xlink:title="43.35MB">
<path fill="none" stroke="#000000" d="M929.8151,-97.6466C922.0141,-88.3661 914.3474,-78.2098 908.2139,-68 904.0849,-61.127 900.5578,-53.2121 897.6954,-45.7368"/>
<polygon fill="#000000" stroke="#000000" points="900.9802,-44.5277 894.3207,-36.2874 894.3879,-46.882 900.9802,-44.5277"/>
</a>
</g>
<g id="a_edge16&#45;label"><a xlink:title="43.35MB">
<text text-anchor="middle" x="936.3931" y="-56.8" font-family="Times,serif" font-size="14.00" fill="#000000"> 43.35MB</text>
</a>
</g>
</g>
<!-- NN7_1 -->
<g id="NN7_1" class="node">
<title>NN7_1</title>
<g id="a_NN7_1"><a xlink:title="32.16MB">
<polygon fill="#f8f8f8" stroke="#000000" points="996,-36 946,-36 942,-32 942,0 992,0 996,-4 996,-36"/>
<polyline fill="none" stroke="#000000" points="992,-32 942,-32 "/>
<polyline fill="none" stroke="#000000" points="992,-32 992,0 "/>
<polyline fill="none" stroke="#000000" points="992,-32 996,-36 "/>
<text text-anchor="middle" x="969" y="-15.6" font-family="Times,serif" font-size="8.00" fill="#000000">72kB</text>
</a>
</g>
</g>
<!-- N7&#45;&gt;NN7_1 -->
<g id="edge17" class="edge">
<title>N7&#45;&gt;NN7_1</title>
<g id="a_edge17"><a xlink:title="32.16MB">
<path fill="none" stroke="#000000" d="M969,-97.7079C969,-80.9422 969,-61.867 969,-46.5814"/>
<polygon fill="#000000" stroke="#000000" points="972.5001,-46.2081 969,-36.2081 965.5001,-46.2081 972.5001,-46.2081"/>
</a>
</g>
<g id="a_edge17&#45;label"><a xlink:title="32.16MB">
<text text-anchor="middle" x="997.3931" y="-56.8" font-family="Times,serif" font-size="14.00" fill="#000000"> 32.16MB</text>
</a>
</g>
</g>
<!-- NN7_2 -->
<g id="NN7_2" class="node">
<title>NN7_2</title>
<g id="a_NN7_2"><a xlink:title="25.53MB">
<polygon fill="#f8f8f8" stroke="#000000" points="1076,-36 1026,-36 1022,-32 1022,0 1072,0 1076,-4 1076,-36"/>
<polyline fill="none" stroke="#000000" points="1072,-32 1022,-32 "/>
<polyline fill="none" stroke="#000000" points="1072,-32 1072,0 "/>
<polyline fill="none" stroke="#000000" points="1072,-32 1076,-36 "/>
<text text-anchor="middle" x="1049" y="-15.6" font-family="Times,serif" font-size="8.00" fill="#000000">64kB</text>
</a>
</g>
</g>
<!-- N7&#45;&gt;NN7_2 -->
<g id="edge18" class="edge">
<title>N7&#45;&gt;NN7_2</title>
<g id="a_edge18"><a xlink:title="25.53MB">
<path fill="none" stroke="#000000" d="M1005.3525,-97.9815C1013.0256,-88.5209 1020.6977,-78.2055 1027,-68 1031.2962,-61.0429 1035.194,-53.1006 1038.4745,-45.6258"/>
<polygon fill="#000000" stroke="#000000" points="1041.7905,-46.7674 1042.4129,-36.1909 1035.3308,-44.0709 1041.7905,-46.7674"/>
</a>
</g>
<g id="a_edge18&#45;label"><a xlink:title="25.53MB">
<text text-anchor="middle" x="1062.3931" y="-56.8" font-family="Times,serif" font-size="14.00" fill="#000000"> 25.53MB</text>
</a>
</g>
</g>
<!-- NN7_3 -->
<g id="NN7_3" class="node">
<title>NN7_3</title>
<g id="a_NN7_3"><a xlink:title="23.23MB">
<polygon fill="#f8f8f8" stroke="#000000" points="1156,-36 1106,-36 1102,-32 1102,0 1152,0 1156,-4 1156,-36"/>
<polyline fill="none" stroke="#000000" points="1152,-32 1102,-32 "/>
<polyline fill="none" stroke="#000000" points="1152,-32 1152,0 "/>
<polyline fill="none" stroke="#000000" points="1152,-32 1156,-36 "/>
<text text-anchor="middle" x="1129" y="-15.6" font-family="Times,serif" font-size="8.00" fill="#000000">56kB</text>
</a>
</g>
</g>
<!-- N7&#45;&gt;NN7_3 -->
<g id="edge19" class="edge">
<title>N7&#45;&gt;NN7_3</title>
<g id="a_edge19"><a xlink:title="23.23MB">
<path fill="none" stroke="#000000" d="M1040.5494,-105.778C1059.4542,-95.3272 1079.0205,-82.6013 1095,-68 1102.2845,-61.3438 1108.8035,-52.8344 1114.1371,-44.7302"/>
<polygon fill="#000000" stroke="#000000" points="1117.1316,-46.5426 1119.4395,-36.2022 1111.1869,-42.8465 1117.1316,-46.5426"/>
</a>
</g>
<g id="a_edge19&#45;label"><a xlink:title="23.23MB">
<text text-anchor="middle" x="1135.3931" y="-56.8" font-family="Times,serif" font-size="14.00" fill="#000000"> 23.23MB</text>
</a>
</g>
</g>
<!-- N8&#45;&gt;N6 -->
<g id="edge27" class="edge">
<title>N8&#45;&gt;N6</title>
<g id="a_edge27"><a xlink:title="encoding/csv.(*Reader).Read &#45;&gt; encoding/csv.(*Reader).readRecord (182.50MB)">
<path fill="none" stroke="#b2733e" d="M316,-239.8542C316,-226.3327 316,-207.8548 316,-190.3475"/>
<polygon fill="#b2733e" stroke="#b2733e" points="319.5001,-190.1963 316,-180.1964 312.5001,-190.1964 319.5001,-190.1963"/>
</a>
</g>
<g id="a_edge27&#45;label"><a xlink:title="encoding/csv.(*Reader).Read &#45;&gt; encoding/csv.(*Reader).readRecord (182.50MB)">
<text text-anchor="middle" x="347.8931" y="-210.8" font-family="Times,serif" font-size="14.00" fill="#000000"> 182.50MB</text>
</a>
</g>
</g>
<!-- N9 -->
<g id="node9" class="node">
<title>N9</title>
<g id="a_node9"><a xlink:title="join.BenchmarkJoinExample (1397.20MB)">
<polygon fill="#edd5d5" stroke="#b20000" points="615.6055,-769 514.3945,-769 514.3945,-733 615.6055,-733 615.6055,-769"/>
<text text-anchor="middle" x="565" y="-756.6" font-family="Times,serif" font-size="8.00" fill="#000000">join</text>
<text text-anchor="middle" x="565" y="-748.6" font-family="Times,serif" font-size="8.00" fill="#000000">BenchmarkJoinExample</text>
<text text-anchor="middle" x="565" y="-740.6" font-family="Times,serif" font-size="8.00" fill="#000000">0 of 1397.20MB (99.81%)</text>
</a>
</g>
</g>
<!-- N9&#45;&gt;N3 -->
<g id="edge20" class="edge">
<title>N9&#45;&gt;N3</title>
<g id="a_edge20"><a xlink:title="join.BenchmarkJoinExample &#45;&gt; join.JoinExample (1397.20MB)">
<path fill="none" stroke="#b20000" stroke-width="5" d="M565,-732.7616C565,-721.3597 565,-706.4342 565,-693.494"/>
<polygon fill="#b20000" stroke="#b20000" stroke-width="5" points="569.3751,-693.2121 565,-683.2121 560.6251,-693.2121 569.3751,-693.2121"/>
</a>
</g>
<g id="a_edge20&#45;label"><a xlink:title="join.BenchmarkJoinExample &#45;&gt; join.JoinExample (1397.20MB)">
<text text-anchor="middle" x="600.3931" y="-703.8" font-family="Times,serif" font-size="14.00" fill="#000000"> 1397.20MB</text>
</a>
</g>
</g>
<!-- N10&#45;&gt;N1 -->
<g id="edge24" class="edge">
<title>N10&#45;&gt;N1</title>
<g id="a_edge24"><a xlink:title="join.buildHashTable &#45;&gt; github.com/pingcap/tidb/util/mvmap.(*MVMap).Put (793.92MB)">
<path fill="none" stroke="#b21b00" stroke-width="3" d="M565,-526.818C565,-508.7923 565,-480.0715 565,-453.296"/>
<polygon fill="#b21b00" stroke="#b21b00" stroke-width="3" points="568.5001,-453.1556 565,-443.1556 561.5001,-453.1557 568.5001,-453.1556"/>
</a>
</g>
<g id="a_edge24&#45;label"><a xlink:title="join.buildHashTable &#45;&gt; github.com/pingcap/tidb/util/mvmap.(*MVMap).Put (793.92MB)">
<text text-anchor="middle" x="596.8931" y="-463.8" font-family="Times,serif" font-size="14.00" fill="#000000"> 793.92MB</text>
</a>
</g>
</g>
<!-- N11&#45;&gt;N9 -->
<g id="edge21" class="edge">
<title>N11&#45;&gt;N9</title>
<g id="a_edge21"><a xlink:title="testing.(*B).runN &#45;&gt; join.BenchmarkJoinExample (1397.20MB)">
<path fill="none" stroke="#b20000" stroke-width="5" d="M565,-818.5898C565,-806.9278 565,-792.1267 565,-779.35"/>
<polygon fill="#b20000" stroke="#b20000" stroke-width="5" points="569.3751,-779.2069 565,-769.207 560.6251,-779.207 569.3751,-779.2069"/>
</a>
</g>
<g id="a_edge21&#45;label"><a xlink:title="testing.(*B).runN &#45;&gt; join.BenchmarkJoinExample (1397.20MB)">
<text text-anchor="middle" x="600.3931" y="-789.8" font-family="Times,serif" font-size="14.00" fill="#000000"> 1397.20MB</text>
</a>
</g>
</g>
</g>
</g></svg>
